<?xml version="1.0" encoding="utf-8"?>
<!-- Generator: Adobe Illustrator 27.1.0, SVG Export Plug-In . SVG Version: 6.00 Build 0)  -->
<svg version="1.1" id="Livello_1" xmlns="http://www.w3.org/2000/svg" xmlns:xlink="http://www.w3.org/1999/xlink" x="0px" y="0px"
	 viewBox="0 0 921 128" style="enable-background:new 0 0 921 128;" xml:space="preserve">
<style type="text/css">
	.st0{fill:#FFCC00;}
	.st1{fill:#006492;}
	.st2{fill:#FFFFFF;}
</style>
<g>
	<g>
		<path class="st0" d="M114,87.3c-11.8,0-21.8,7.9-25.1,18.7c0,0,0,0,0,0c0,0,0,0,0,0c-3.2-10.8-13.2-18.7-25.1-18.7
			c-11.6,0-21.5,7.6-24.9,18.1c-0.1,0.2-0.1,0.4-0.1,0.6c0,0,0,0,0-0.1c0,0,0,0,0,0.1c-0.1-0.2-0.1-0.4-0.1-0.6
			c-3.4-10.5-13.2-18.1-24.9-18.1c-3.1,0-6,0.5-8.8,1.5c9.6,23.1,32.3,39.3,58.9,39.3c26.5,0,49.3-16.2,58.9-39.3
			C120,87.9,117.1,87.3,114,87.3z"/>
		<path class="st1" d="M13.8,72.4c11.8,0,21.8,7.8,25,18.6c3.2-10.8,13.2-18.6,25-18.6c11.8,0,21.8,7.9,25.1,18.7
			c3.2-10.8,13.2-18.7,25.1-18.7c4.6,0,8.9,1.2,12.6,3.2c0.6-3.6,1-7.4,1-11.2c0-35.2-28.5-63.7-63.7-63.7S0.2,29.2,0.2,64.4
			c0,3.8,0.4,7.6,1,11.2C4.9,73.5,9.2,72.4,13.8,72.4z"/>
	</g>
	<g>
		<path class="st2" d="M99.1,20c1.6,0.2,2.1,2.2,0.7,3.1L46.6,58c-9.6,6.3-19.2,7-26.4,6.4c-1.5-0.1-1.9-2.1-0.7-2.9l57.1-37.4
			C83.8,19.3,93.5,19.4,99.1,20z"/>
		<path class="st2" d="M66.9,32.4l-29.4-2.6C36,29.6,34.4,30,33,30.9l-2.3,1.5l20.5,10.3L66.9,32.4z"/>
		<path class="st2" d="M70.2,40l6.3,9.5c1.2,1.8,1.5,4.1,0.8,6.2l-0.3,0.9L57.4,45.5L70.2,40z"/>
		<polygon class="st2" points="36.2,52.5 25.4,47.8 21.6,50.2 27.8,59.6 		"/>
	</g>
</g>
<g>
	<path class="st1" d="M177.1,87.7c-4.4-2.3-7.9-5.5-10.4-9.7c-2.5-4.1-3.8-8.8-3.8-14.1c0-5.3,1.3-10,3.8-14.1
		c2.5-4.1,6-7.4,10.4-9.7c4.4-2.3,9.4-3.5,14.9-3.5c5.1,0,9.6,0.9,13.5,2.7c4,1.8,7.2,4.4,9.8,7.7L204.3,57c-3.2-4.1-7-6.1-11.4-6.1
		c-3.7,0-6.6,1.2-8.8,3.5c-2.2,2.4-3.3,5.5-3.3,9.5c0,4,1.1,7.1,3.3,9.5c2.2,2.4,5.2,3.5,8.8,3.5c4.4,0,8.2-2,11.4-6.1l11.1,9.9
		c-2.6,3.4-5.9,5.9-9.8,7.7c-4,1.8-8.5,2.7-13.5,2.7C186.5,91.1,181.5,90,177.1,87.7z"/>
	<path class="st1" d="M271.7,37.9v52.1h-17.5V70.7h-16.2v19.2h-17.5V37.9h17.5v18.4h16.2V37.9H271.7z"/>
	<path class="st1" d="M315.6,80.8h-19.8l-3.5,9.1h-17.8l22.8-52.1h17.3l22.8,52.1h-18.1L315.6,80.8z M310.8,68.2l-5.1-13.1
		l-5.1,13.1H310.8z"/>
	<path class="st1" d="M362.4,76.8h-4.8v13.1h-17.5V37.9h25.1c4.8,0,9,0.8,12.6,2.4c3.6,1.6,6.3,3.9,8.3,6.8c1.9,3,2.9,6.4,2.9,10.4
		c0,3.7-0.8,7-2.5,9.7c-1.7,2.8-4.1,5-7.3,6.6L390,89.9h-18.7L362.4,76.8z M369.4,53c-1.2-1.1-3-1.6-5.4-1.6h-6.4v12.2h6.4
		c2.4,0,4.2-0.5,5.4-1.6c1.2-1.1,1.8-2.6,1.8-4.5C371.2,55.6,370.6,54.1,369.4,53z"/>
	<path class="st1" d="M395.5,37.9h17.5v38.4h23.5v13.6h-41V37.9z"/>
	<path class="st1" d="M441.4,37.9h17.5v52.1h-17.5V37.9z"/>
	<path class="st1" d="M510.7,76.7v13.2h-43.3V37.9h42.3v13.2h-25.1v6.1h22v12.6h-22v6.8H510.7z"/>
	<path class="st1" d="M531.6,36.6c1.8,1.7,2.8,4,2.8,6.9c0,1.3-0.2,2.6-0.5,3.9c-0.3,1.3-1.1,3.2-2.4,5.9l-5.2,11.1h-10.4l3.7-12.6
		c-1.5-0.7-2.7-1.8-3.6-3.2c-0.8-1.4-1.3-3.1-1.3-5c0-2.9,0.9-5.2,2.8-6.9c1.8-1.7,4.2-2.6,7.1-2.6C527.4,34,529.8,34.9,531.6,36.6z
		"/>
	<path class="st1" d="M547.6,89.7c-4.1-1-7.4-2.3-10.1-3.9l5.7-12.8c2.5,1.4,5.3,2.6,8.3,3.5c3.1,0.9,6,1.3,8.8,1.3
		c2.4,0,4.2-0.2,5.2-0.7c1-0.5,1.6-1.2,1.6-2.1c0-1.1-0.7-1.9-2-2.5c-1.4-0.5-3.6-1.1-6.7-1.8c-4-0.8-7.4-1.7-10-2.7s-5-2.6-7-4.8
		c-2-2.2-3-5.2-3-9c0-3.3,0.9-6.2,2.8-8.9c1.8-2.7,4.6-4.8,8.2-6.3c3.6-1.5,8.1-2.3,13.3-2.3c3.6,0,7.1,0.4,10.5,1.2
		c3.4,0.8,6.5,1.9,9.1,3.4L577,53.9c-5.1-2.6-9.9-3.9-14.5-3.9c-4.5,0-6.8,1.1-6.8,3.3c0,1,0.7,1.8,2,2.3c1.3,0.5,3.5,1.1,6.6,1.7
		c4,0.7,7.3,1.6,10,2.6c2.7,1,5.1,2.5,7.1,4.7c2,2.2,3,5.2,3,8.9c0,3.3-0.9,6.2-2.8,8.9c-1.8,2.7-4.6,4.8-8.2,6.3
		c-3.6,1.6-8.1,2.3-13.3,2.3C555.9,91.1,551.7,90.6,547.6,89.7z"/>
	<path class="st1" d="M623.3,51.5H608V37.9h48v13.6h-15.2v38.4h-17.5V51.5z"/>
	<path class="st1" d="M682.9,76.8h-4.8v13.1h-17.5V37.9h25.1c4.8,0,9,0.8,12.6,2.4c3.6,1.6,6.3,3.9,8.3,6.8c1.9,3,2.9,6.4,2.9,10.4
		c0,3.7-0.8,7-2.5,9.7c-1.7,2.8-4.1,5-7.3,6.6l10.9,16.1h-18.7L682.9,76.8z M689.9,53c-1.2-1.1-3-1.6-5.4-1.6h-6.4v12.2h6.4
		c2.4,0,4.2-0.5,5.4-1.6c1.2-1.1,1.8-2.6,1.8-4.5C691.7,55.6,691.1,54.1,689.9,53z"/>
	<path class="st1" d="M751.5,80.8h-19.8l-3.5,9.1h-17.8l22.8-52.1h17.3l22.8,52.1H755L751.5,80.8z M746.7,68.2l-5.1-13.1l-5.1,13.1
		H746.7z"/>
	<path class="st1" d="M828.6,37.9l-22,52.1h-17.3l-22-52.1h18.9l12.4,30.4l12.7-30.4H828.6z"/>
	<path class="st1" d="M873.6,76.7v13.2h-43.3V37.9h42.3v13.2h-25.1v6.1h22v12.6h-22v6.8H873.6z"/>
	<path class="st1" d="M880.4,37.9h17.5v38.4h23.5v13.6h-41V37.9z"/>
</g>
</svg>
