<?xml version="1.0" encoding="utf-8"?>
<!-- Generator: Adobe Illustrator 27.1.0, SVG Export Plug-In . SVG Version: 6.00 Build 0)  -->
<svg version="1.1" id="Livello_1" xmlns="http://www.w3.org/2000/svg" xmlns:xlink="http://www.w3.org/1999/xlink" x="0px" y="0px"
	 viewBox="0 0 128 128" style="enable-background:new 0 0 128 128;" xml:space="preserve">
<style type="text/css">
	.st0{fill:#FFCC00;}
	.st1{fill:#006492;}
	.st2{fill:#FFFFFF;}
</style>
<g>
	<g>
		<path class="st0" d="M114,87.3c-11.8,0-21.8,7.9-25.1,18.7c0,0,0,0,0,0c0,0,0,0,0,0c-3.2-10.8-13.2-18.7-25.1-18.7
			c-11.6,0-21.5,7.6-24.9,18.1c-0.1,0.2-0.1,0.4-0.1,0.6c0,0,0,0,0-0.1c0,0,0,0,0,0.1c-0.1-0.2-0.1-0.4-0.1-0.6
			c-3.4-10.5-13.2-18.1-24.9-18.1c-3.1,0-6,0.5-8.8,1.5c9.6,23.1,32.3,39.3,58.9,39.3c26.5,0,49.3-16.2,58.9-39.3
			C120,87.9,117.1,87.3,114,87.3z"/>
		<path class="st1" d="M13.8,72.4c11.8,0,21.8,7.8,25,18.6c3.2-10.8,13.2-18.6,25-18.6c11.8,0,21.8,7.9,25.1,18.7
			c3.2-10.8,13.2-18.7,25.1-18.7c4.6,0,8.9,1.2,12.6,3.2c0.6-3.6,1-7.4,1-11.2c0-35.2-28.5-63.7-63.7-63.7S0.2,29.2,0.2,64.4
			c0,3.8,0.4,7.6,1,11.2C4.9,73.5,9.2,72.4,13.8,72.4z"/>
	</g>
	<g>
		<path class="st2" d="M99.1,20c1.6,0.2,2.1,2.2,0.7,3.1L46.6,58c-9.6,6.3-19.2,7-26.4,6.4c-1.5-0.1-1.9-2.1-0.7-2.9l57.1-37.4
			C83.8,19.3,93.5,19.4,99.1,20z"/>
		<path class="st2" d="M66.9,32.4l-29.4-2.6C36,29.6,34.4,30,33,30.9l-2.3,1.5l20.5,10.3L66.9,32.4z"/>
		<path class="st2" d="M70.2,40l6.3,9.5c1.2,1.8,1.5,4.1,0.8,6.2l-0.3,0.9L57.4,45.5L70.2,40z"/>
		<polygon class="st2" points="36.2,52.5 25.4,47.8 21.6,50.2 27.8,59.6 		"/>
	</g>
</g>
</svg>
