<?xml version="1.0" encoding="utf-8"?>
<!-- Generator: Adobe Illustrator 27.0.0, SVG Export Plug-In . SVG Version: 6.00 Build 0)  -->
<svg version="1.1" id="Livello_1" xmlns="http://www.w3.org/2000/svg" xmlns:xlink="http://www.w3.org/1999/xlink" x="0px" y="0px"
	 viewBox="0 0 24 24" style="enable-background:new 0 0 24 24;" xml:space="preserve">
<path d="M17.5,1.3c0-0.3,0.2-0.5,0.5-0.5s0.5,0.2,0.5,0.5v2.5H21c0.3,0,0.5,0.2,0.5,0.5S21.3,4.8,21,4.8h-2.5v2.5
	c0,0.3-0.2,0.5-0.5,0.5s-0.5-0.2-0.5-0.5V4.8H15c-0.3,0-0.5-0.2-0.5-0.5s0.2-0.5,0.5-0.5h2.5V1.3z M6.5,5.8c0-0.6,0.4-1,1-1H11
	c0.3,0,0.5-0.2,0.5-0.5S11.3,3.8,11,3.8H7.5c-1.1,0-2,0.9-2,2v14c0,0.3,0.2,0.5,0.5,0.5c0.1,0,0.2,0,0.3-0.1l5.7-4.4l5.7,4.4
	c0.2,0.2,0.5,0.1,0.7-0.1c0.1-0.1,0.1-0.2,0.1-0.3v-8.5c0-0.3-0.2-0.5-0.5-0.5s-0.5,0.2-0.5,0.5v7.5l-5.2-4c-0.2-0.1-0.4-0.1-0.6,0
	l-5.2,4V5.8z"/>
</svg>
