<?xml version="1.0" encoding="utf-8"?>
<!-- Generator: Adobe Illustrator 27.0.0, SVG Export Plug-In . SVG Version: 6.00 Build 0)  -->
<svg version="1.1" id="Livello_1" xmlns="http://www.w3.org/2000/svg" xmlns:xlink="http://www.w3.org/1999/xlink" x="0px" y="0px"
	 viewBox="0 0 24 24" style="enable-background:new 0 0 24 24;" xml:space="preserve">
<style type="text/css">
	.st0{fill-rule:evenodd;clip-rule:evenodd;}
</style>
<path class="st0" d="M4.4,12c0,0.6,0.2,1,0.6,1.4C5.4,13.8,5.8,14,6.4,14c0.6,0,1-0.2,1.4-0.6C8.2,13,8.4,12.6,8.4,12
	s-0.2-1-0.6-1.4C7.4,10.2,6.9,10,6.4,10c-0.6,0-1,0.2-1.4,0.6C4.6,11,4.4,11.5,4.4,12z M10,12c0,0.6,0.2,1,0.6,1.4
	C11,13.8,11.4,14,12,14c0.5,0,1-0.2,1.4-0.6C13.8,13,14,12.6,14,12s-0.2-1-0.6-1.4C13,10.2,12.5,10,12,10c-0.6,0-1,0.2-1.4,0.6
	C10.2,11,10,11.5,10,12z M15.6,12c0,0.6,0.2,1,0.6,1.4c0.4,0.4,0.9,0.6,1.4,0.6c0.6,0,1-0.2,1.4-0.6c0.4-0.4,0.6-0.9,0.6-1.4
	s-0.2-1-0.6-1.4c-0.4-0.4-0.9-0.6-1.4-0.6c-0.5,0-1,0.2-1.4,0.6C15.8,11,15.6,11.5,15.6,12z"/>
</svg>
