<?xml version="1.0" encoding="utf-8"?>
<!-- Generator: Adobe Illustrator 19.0.0, SVG Export Plug-In . SVG Version: 6.00 Build 0)  -->
<svg version="1.1" id="Livello_1" xmlns="http://www.w3.org/2000/svg" xmlns:xlink="http://www.w3.org/1999/xlink" x="0px" y="0px"
	 viewBox="1672 115.9 3940 610" style="enable-background:new 1672 115.9 3940 610;" xml:space="preserve">
<path d="M2266.8,424.1c0,163.8-131.9,296.5-294.5,296.5s-294.5-132.7-294.5-296.5s131.8-296.5,294.5-296.5
	S2266.8,260.3,2266.8,424.1 M2589.9,424.1c0,154.2-65.9,279.1-147.3,279.1c-81.3,0-147.3-125-147.3-279.1S2361.3,145,2442.6,145
	C2523.9,145,2589.9,270,2589.9,424.1 M2722,424.1c0,138.1-23.2,250.1-51.8,250.1s-51.8-112-51.8-250.1s23.2-250.1,51.8-250.1
	C2698.8,174,2722,286,2722,424.1 M3534.8,153.3l0.8-0.2v-6.4h-167.5l-155.5,365.5l-155.5-365.5h-180.5v6.4l0.8,0.2
	c30.6,6.9,46.1,17.2,46.1,54.3V642c0,37.1-15.6,47.4-46.2,54.3l-0.8,0.2v6.4H2999v-6.3l-0.8-0.2c-30.6-6.9-46.1-17.2-46.1-54.3
	V232.8l199.8,470.1h11.3l205.6-483.2v433.1c-2.6,29.3-18,38.4-45.7,44.6l-0.8,0.2v6.3h213.3v-6.3l-0.8-0.2
	c-27.7-6.3-43.5-15.3-46.1-44.6l-0.1-445.2h0.1C3488.7,170.5,3504.2,160.2,3534.8,153.3 M3632.2,441.1
	c3.5-78.1,31.5-134.4,78.6-135.4c14.5,0.2,26.7,5,36.1,14.2c20.1,19.5,29.6,60.3,28.1,121.2H3632.2z M3630.1,463.1h250v-1
	c-0.7-59.7-18-106.1-51.3-138c-28.8-27.6-71.5-42.7-116.3-42.7h-1c-23.3,0-51.8,5.6-72.1,15.9c-23.1,10.7-43.5,26.7-60.5,47.7
	c-27.3,33.8-43.8,79.6-47.9,130.9c-0.1,1.5-0.2,3.1-0.4,4.6c-0.1,1.5-0.2,2.9-0.3,4.4c-0.4,7.2-0.5,14.5-0.4,21.7
	c2.7,116.4,65.6,209.4,177.2,209.4c98,0,155.1-71.6,169.3-167.8l-7.2-2.5c-25,51.7-69.9,83-121,79.2
	C3678.7,619.5,3625.2,548.8,3630.1,463.1 M4162.8,620.8c-8.2,19.5-25.3,30.2-48.2,30.2c-22.9,0-43.9-15.7-58.8-44.3
	c-16-30.7-24.4-74.1-24.4-125.5c0-107,33.3-176.2,84.8-176.2c21.6,0,38.5,10.7,46.6,29.4V620.8z M4328.6,697.1
	c-30.6-7.2-46.1-18-46.1-57V121.2l-185.7,54.7v6.7l1.1-0.1c25.6-2.1,43,1.5,53.1,10.8c7.9,7.3,11.8,18.5,11.8,34.3v71.1
	c-18.3-11.7-40.1-17.4-66.5-17.4c-53.6,0-102.6,22.6-137.9,63.6c-36.8,42.7-56.3,101.1-56.3,168.8c0,120.9,59.5,202.2,148.1,202.2
	c51.8,0,93.5-28.4,112.6-76.3v64.3h166.6v-6.7L4328.6,697.1z M4487.9,191.7c0-37.8-28.5-66.2-66.2-66.2c-37.6,0-67,29.1-67,66.2
	s29.4,66.2,67,66.2C4459.4,258,4487.9,229.5,4487.9,191.7 M4531.7,697.1c-30.6-7.2-46.1-18-46.1-57h-0.1V282.5l-166.7,47.9v6.5
	l1,0.1c36.1,3.2,45.9,15.6,45.9,57.8v309.1h166.8v-6.7L4531.7,697.1z M4958.8,697.1c-30.6-7.2-46.1-18-46.1-57V282.5L4754,328.8v6.5
	l0.9,0.1c29.5,3.1,38,16.2,38,58.6v226c-9.8,19.5-28.3,31-50.6,31.8c-36.2,0-56.2-24.5-56.2-68.9V282.6l-166.7,47.9v6.5l1,0.1
	c36.1,3.2,45.9,15.6,45.9,57.8V586c-0.1,13.4,1.1,26.7,3.5,39.8l3,13c14.1,50.6,51.1,77,109,77c49.1,0,92.1-30.4,111-77.9v66h166.7
	v-6.7L4958.8,697.1z M5606.2,703.9v-6.7l-0.8-0.2c-33.2-7.7-46.1-22.1-46.1-51.4V402.4c0-75.8-42.6-121.1-113.9-121.1
	c-52,0-95.9,30-112.7,76.9c-13.4-49.6-52-76.9-109.1-76.9c-50.1,0-89.4,26.4-106.3,71.1v-69.9l-166.7,45.9v6.5l1,0.1
	c35.6,3.2,45.9,15.9,45.9,57v311.8h155.5v-6.7l-0.8-0.2c-26.5-6.2-35-17.6-35-46.7V371.6c7-16.4,21.1-35.7,49-35.7
	c34.6,0,52.2,24,52.2,71.3v296.7H5374v-6.7l-0.8-0.2c-26.5-6.2-35-17.6-35-46.7v-248c0.1-9.3-0.7-18.5-2.2-27.7
	c7.4-17.8,22.3-38.8,51.4-38.8c35.1,0,52.2,23.3,52.2,71.3v296.7H5606.2z"/>
</svg>
