<?xml version="1.0" encoding="utf-8"?>
<!-- Generator: Adobe Illustrator 19.0.0, SVG Export Plug-In . SVG Version: 6.00 Build 0)  -->
<svg version="1.1" id="Livello_1" xmlns="http://www.w3.org/2000/svg" xmlns:xlink="http://www.w3.org/1999/xlink" x="0px" y="0px"
	 viewBox="224 124.2 1043.6 592.7" style="enable-background:new 224 124.2 1043.6 592.7;" xml:space="preserve">
<g>
	<g>
		<path d="M812.7,420.5c0,163.7-131.8,296.3-294.3,296.3S224,584.2,224,420.5s131.8-296.4,294.3-296.4S812.7,256.9,812.7,420.5
			 M1135.6,420.5c0,154.1-65.9,279-147.2,279s-147.2-124.9-147.2-279s65.9-279,147.2-279S1135.6,266.4,1135.6,420.5 M1267.6,420.5
			c0,138-23.2,249.9-51.8,249.9s-51.8-111.9-51.8-249.9s23.2-249.9,51.8-249.9S1267.6,282.5,1267.6,420.5"/>
	</g>
</g>
</svg>
