<?xml version="1.0" encoding="utf-8"?>
<!-- Generator: Adobe Illustrator 19.0.0, SVG Export Plug-In . SVG Version: 6.00 Build 0)  -->
<svg version="1.1" id="Livello_1" xmlns="http://www.w3.org/2000/svg" xmlns:xlink="http://www.w3.org/1999/xlink" x="0px" y="0px"
	 viewBox="-283 406.9 29 29" style="enable-background:new -283 406.9 29 29;" xml:space="preserve">
<style type="text/css">
	.st0{fill:#579FEC;}
</style>
<path class="st0" d="M-261,414c-0.8-0.9-2-1.5-3.3-1.5c-2.5,0-4.5,2-4.5,4.5l0,0c0,0.4,0,0.7,0.1,1c-3.6-0.2-7-1.9-9.3-4.8
	c-0.4,0.7-0.6,1.5-0.6,2.3c0,1.6,0.8,3,2,3.8c-0.7,0-1.4-0.2-2-0.6v0.1c0,2.2,1.5,4,3.6,4.4c-0.4,0.1-0.8,0.1-1.2,0.2l-0.8-0.1
	c0.6,1.8,2.3,3.1,4.2,3.2c-1.6,1.2-3.6,1.9-5.7,1.9l-1-0.1c2,1.3,4.4,2,6.9,2c8.3,0,12.9-6.9,12.8-12.9c0-0.2,0-0.4,0-0.6
	c0.9-0.6,1.7-1.4,2.3-2.3c-0.8,0.4-1.7,0.6-2.6,0.7c0.9-0.6,1.6-1.5,1.9-2.5C-259,413.4-260,413.8-261,414L-261,414z"/>
</svg>
